<svg xmlns="http://www.w3.org/2000/svg" xmlns:xlink="http://www.w3.org/1999/xlink" width="630" zoomAndPan="magnify" viewBox="0 0 472.5 629.999998" height="840" preserveAspectRatio="xMidYMid meet" version="1.0"><defs><g/><clipPath id="c8bc4fb55a"><path d="M 0 0.332031 L 472 0.332031 L 472 629.667969 L 0 629.667969 Z M 0 0.332031 " clip-rule="nonzero"/></clipPath><clipPath id="59f6ac7ff2"><path d="M 457 43 L 472 43 L 472 336.726562 L 457 336.726562 Z M 457 43 " clip-rule="nonzero"/></clipPath><clipPath id="9450f18524"><path d="M 0 43 L 15 43 L 15 336.726562 L 0 336.726562 Z M 0 43 " clip-rule="nonzero"/></clipPath><clipPath id="9f87b2e369"><path d="M 43 0.332031 L 429 0.332031 L 429 15 L 43 15 Z M 43 0.332031 " clip-rule="nonzero"/></clipPath><clipPath id="4fefc117e8"><path d="M 428 0.332031 L 472 0.332031 L 472 44 L 428 44 Z M 428 0.332031 " clip-rule="nonzero"/></clipPath><clipPath id="d3523642c6"><path d="M 0 0.332031 L 44 0.332031 L 44 44 L 0 44 Z M 0 0.332031 " clip-rule="nonzero"/></clipPath><clipPath id="ed30a04c46"><path d="M 457 292.921875 L 472 292.921875 L 472 587 L 457 587 Z M 457 292.921875 " clip-rule="nonzero"/></clipPath><clipPath id="8ba5371c79"><path d="M 0 292.921875 L 15 292.921875 L 15 587 L 0 587 Z M 0 292.921875 " clip-rule="nonzero"/></clipPath><clipPath id="9b6c211231"><path d="M 43 615 L 429 615 L 429 629.3125 L 43 629.3125 Z M 43 615 " clip-rule="nonzero"/></clipPath><clipPath id="39c8c6653e"><path d="M 428 586 L 472 586 L 472 629.3125 L 428 629.3125 Z M 428 586 " clip-rule="nonzero"/></clipPath><clipPath id="ef7c3acd99"><path d="M 0 586 L 44 586 L 44 629.3125 L 0 629.3125 Z M 0 586 " clip-rule="nonzero"/></clipPath></defs><g clip-path="url(#c8bc4fb55a)"><path fill="#ffffff" d="M 0 0.332031 L 472 0.332031 L 472 629.667969 L 0 629.667969 Z M 0 0.332031 " fill-opacity="1" fill-rule="nonzero"/><path fill="#ffffff" d="M 0 0.332031 L 472 0.332031 L 472 629.667969 L 0 629.667969 Z M 0 0.332031 " fill-opacity="1" fill-rule="nonzero"/></g><g clip-path="url(#59f6ac7ff2)"><path fill="#ee0000" d="M 457.898438 43.585938 L 472 43.585938 L 472 429.082031 L 457.898438 429.082031 Z M 457.898438 43.585938 " fill-opacity="1" fill-rule="nonzero"/></g><g clip-path="url(#9450f18524)"><path fill="#ee0000" d="M 0 43.585938 L 14.105469 43.585938 L 14.105469 429.082031 L 0 429.082031 Z M 0 43.585938 " fill-opacity="1" fill-rule="nonzero"/></g><g clip-path="url(#9f87b2e369)"><path fill="#ee0000" d="M 43.25 0.332031 L 428.75 0.332031 L 428.75 14.4375 L 43.25 14.4375 Z M 43.25 0.332031 " fill-opacity="1" fill-rule="nonzero"/></g><g clip-path="url(#4fefc117e8)"><path fill="#ee0000" d="M 457.898438 14.4375 L 457.898438 43.585938 L 472 43.585938 L 472 0.332031 L 428.75 0.332031 L 428.75 14.4375 Z M 457.898438 14.4375 " fill-opacity="1" fill-rule="nonzero"/></g><g clip-path="url(#d3523642c6)"><path fill="#ee0000" d="M 14.105469 14.4375 L 43.25 14.4375 L 43.25 0.332031 L 0 0.332031 L 0 43.585938 L 14.105469 43.585938 Z M 14.105469 14.4375 " fill-opacity="1" fill-rule="nonzero"/></g><path stroke-linecap="butt" transform="matrix(0.749207, 0, 0, 0.749207, 22.864707, 214.606247)" fill="none" stroke-linejoin="miter" d="M 117.101056 65.145955 L 117.101056 19.258905 L 129.968826 19.258905 L 129.968826 87.998237 L 116.04786 87.998237 L 88.388412 43.164384 L 88.388412 87.998237 L 75.525856 87.998237 L 75.525856 19.258905 L 88.977576 19.258905 Z M 167.195679 37.116324 C 172.586795 37.116324 177.227117 38.336364 181.116645 40.771229 C 185.021815 43.195667 187.967638 46.391754 189.954113 50.35949 C 191.935374 54.327226 192.931218 58.524371 192.931218 62.945712 C 192.931218 67.554751 191.888449 71.861387 189.813339 75.860406 C 187.733015 79.859425 184.755909 83.076368 180.882022 85.516447 C 177.008136 87.935671 172.482518 89.150497 167.310384 89.150497 C 162.889043 89.150497 158.728395 88.243288 154.818011 86.42887 C 150.912841 84.604024 147.727182 81.689485 145.255819 77.685252 C 142.805312 73.686233 141.580059 68.607948 141.580059 62.455611 C 141.580059 58.16983 142.555048 54.092603 144.505026 50.218716 C 146.460218 46.344829 149.364329 43.195667 153.227788 40.771229 C 157.101675 38.336364 161.757639 37.116324 167.195679 37.116324 Z M 155.099559 63.13341 C 155.099559 68.133488 156.26746 71.929167 158.592835 74.525662 C 160.939065 77.101301 163.80668 78.389121 167.195679 78.389121 C 170.60032 78.389121 173.483576 77.116943 175.845448 74.572586 C 178.217748 72.007375 179.406504 68.164771 179.406504 63.039561 C 179.406504 58.30539 178.264672 54.593132 175.986222 51.908002 C 173.718199 49.217658 170.756735 47.872486 167.10183 47.872486 C 163.775397 47.872486 160.939065 49.186375 158.592835 51.814153 C 156.26746 54.436717 155.099559 58.211541 155.099559 63.13341 Z M 243.422093 87.998237 L 229.615832 87.998237 L 229.615832 19.258905 L 243.422093 19.258905 Z M 283.375788 37.116324 C 289.830528 37.116324 294.533416 39.744102 297.484452 44.994444 C 301.765019 39.744102 306.822449 37.116324 312.646314 37.116324 C 318.14692 37.116324 322.239788 38.623125 324.930132 41.641941 C 327.615263 44.639902 328.960435 49.149878 328.960435 55.166655 L 328.960435 87.998237 L 315.811117 87.998237 L 315.811117 58.232396 C 315.811117 54.655698 315.341871 51.923644 314.408593 50.031018 C 313.485743 48.138392 311.619186 47.194686 308.80371 47.194686 C 306.11858 47.194686 303.954834 48.122751 302.312473 49.984093 C 300.685753 51.845436 299.689909 54.243805 299.314512 57.179199 C 299.048606 59.494147 298.913046 61.537974 298.913046 63.321109 L 298.913046 87.998237 L 285.763729 87.998237 L 285.763729 58.727711 C 285.763729 54.697409 285.325766 51.767228 284.455054 49.937169 C 283.594769 48.107109 281.759496 47.194686 278.944019 47.194686 C 276.900192 47.194686 275.054491 47.74214 273.41213 48.837047 C 271.790624 49.916313 270.654006 51.412687 270.017917 53.336596 C 269.251482 55.646329 268.865657 58.884127 268.865657 63.039561 L 268.865657 87.998237 L 255.71634 87.998237 L 255.71634 38.26337 L 267.906309 38.26337 L 268.094008 44.994444 C 270.143049 42.491798 272.296367 40.552248 274.56439 39.181006 C 276.84284 37.804551 279.783448 37.116324 283.375788 37.116324 Z M 361.406192 37.116324 C 367.751442 37.116324 372.45433 37.934897 375.514857 39.577259 C 378.596239 41.203978 380.530576 43.341655 381.328294 46.000716 C 382.126012 48.654563 382.490981 52.16348 382.428415 56.522255 L 382.334566 71.006316 C 382.272 75.552789 382.428415 78.853153 382.803812 80.89698 C 383.19485 82.946021 383.997783 85.313107 385.217822 87.998237 L 372.256204 87.998237 C 371.943373 87.294368 371.36985 85.474736 370.525207 82.539342 C 368.163335 84.833433 365.718042 86.517505 363.189327 87.575916 C 360.655398 88.623899 357.954627 89.150497 355.076584 89.150497 C 350.154715 89.150497 346.171337 87.789683 343.126452 85.068056 C 340.076352 82.351643 338.553909 78.811442 338.553909 74.452668 C 338.553909 70.813404 339.471546 67.91972 341.296392 65.782044 C 343.126452 63.639153 345.352763 62.095855 347.975327 61.141722 C 350.603105 60.171946 353.705343 59.337731 357.282041 58.633862 C 362.782647 57.601521 366.844232 56.579607 369.466797 55.562907 L 369.466797 53.430445 C 369.466797 51.256271 368.830707 49.68169 367.548102 48.696274 C 366.281137 47.695215 363.945335 47.194686 360.540694 47.194686 C 357.928558 47.194686 355.983793 47.726498 354.701187 48.790123 C 353.423795 49.838106 352.459234 51.381404 351.823145 53.430445 L 339.914723 51.224988 C 341.197329 46.365685 343.501848 42.804629 346.828281 40.536606 C 350.154715 38.258156 355.014018 37.116324 361.406192 37.116324 Z M 361.218494 66.204365 L 359.018251 66.694467 C 354.158948 67.711166 351.729296 69.822774 351.729296 73.024074 C 351.729296 74.942769 352.412309 76.564275 353.788765 77.87295 C 355.16522 79.186839 356.906644 79.843784 359.018251 79.843784 C 360.733606 79.843784 362.459389 79.400607 364.195599 78.509039 C 365.93181 77.60183 367.271768 76.413074 368.225901 74.942769 C 369.054903 73.602811 369.466797 71.298292 369.466797 68.029211 L 369.466797 64.092758 C 366.985006 64.859193 364.23731 65.563062 361.218494 66.204365 Z M 413.445579 37.116324 C 416.839792 37.116324 419.796042 37.861904 422.329971 39.342636 C 424.858686 40.81294 426.923369 42.757704 428.518805 45.182142 L 428.706504 45.182142 L 428.706504 38.26337 L 441.011178 38.26337 L 441.011178 83.780237 C 441.011178 89.343409 440.369875 93.869027 439.087269 97.351875 C 437.804663 100.850365 435.448005 103.525068 432.006867 105.365555 C 428.586585 107.226898 423.71164 108.154962 417.382032 108.154962 C 409.321428 108.154962 403.445424 106.736796 399.759236 103.890037 C 396.088689 101.048491 394.222133 96.835705 394.159567 91.25689 L 409.227579 93.08695 C 409.477843 95.068211 410.228637 96.397742 411.47996 97.070328 C 412.726069 97.742914 414.530059 98.0766 416.891931 98.0766 C 421.000441 98.0766 423.852414 97.357089 425.44785 95.923282 C 427.038073 94.48426 427.835791 91.971187 427.835791 88.373634 L 427.835791 79.937633 L 427.648093 79.937633 C 425.995304 82.372499 423.868055 84.32769 421.276774 85.797995 C 418.68028 87.263085 415.906514 87.998237 412.955478 87.998237 C 408.862609 87.998237 405.259843 86.913758 402.147177 84.739584 C 399.055367 82.554983 396.656998 79.546595 394.952071 75.719632 C 393.267999 71.877028 392.423356 67.586034 392.423356 62.851863 C 392.423356 56.647387 393.492194 51.626454 395.635085 47.783851 C 397.772761 43.936033 400.447464 41.203978 403.648764 39.577259 C 406.855279 37.934897 410.119146 37.116324 413.445579 37.116324 Z M 405.94807 62.080214 C 405.94807 66.235648 406.777071 69.807132 408.42986 72.789451 C 410.103505 75.756129 412.830346 77.242075 416.610383 77.242075 C 419.483212 77.242075 422.126631 76.126312 424.530214 73.889573 C 426.93901 71.658047 428.143408 67.810229 428.143408 62.361761 C 428.143408 58.326245 427.257055 54.796472 425.494775 51.767228 C 423.727282 48.717129 420.797101 47.194686 416.704232 47.194686 C 412.736496 47.194686 409.947089 48.73277 408.336011 51.814153 C 406.745788 54.87468 405.94807 58.294962 405.94807 62.080214 Z M 473.065897 37.116324 C 481.001369 37.116324 486.924297 39.697177 490.829467 44.85367 C 494.734637 50.010162 496.689829 57.351256 496.689829 66.882165 L 463.665334 66.882165 C 463.790467 70.208598 464.760242 73.076213 466.569446 75.485009 C 468.399506 77.87295 471.037711 79.072135 474.49449 79.072135 C 476.679092 79.072135 478.462227 78.514253 479.838682 77.403704 C 481.209923 76.282728 482.221409 74.530876 482.862712 72.158576 L 496.006815 74.358819 C 494.338385 79.233764 491.642827 82.919952 487.925355 85.422598 C 484.218311 87.904388 479.682266 89.150497 474.306792 89.150497 C 466.30354 89.150497 460.260694 86.752128 456.162611 81.955391 C 454.243916 79.718651 452.768398 76.908389 451.736057 73.514176 C 450.719357 70.109535 450.213614 66.741391 450.213614 63.414958 C 450.213614 58.884127 451.026974 54.619201 452.64848 50.614969 C 454.290841 46.615949 456.819556 43.367724 460.245052 40.865078 C 463.665334 38.367647 467.940687 37.116324 473.065897 37.116324 Z M 463.946882 58.821561 L 483.608292 58.821561 C 483.545725 54.791258 482.539453 51.845436 480.589475 49.984093 C 478.649925 48.122751 476.366261 47.194686 473.743697 47.194686 C 470.667528 47.194686 468.258732 48.305235 466.522521 50.521119 C 464.807166 52.726576 463.946882 55.489914 463.946882 58.821561 Z M 463.946882 58.821561 " stroke="#ffffff" stroke-width="7.2" stroke-opacity="1" stroke-miterlimit="4"/><path stroke-linecap="butt" transform="matrix(0.749207, 0, 0, 0.749207, 22.864707, 214.606247)" fill="none" stroke-linejoin="miter" d="M 156.069334 221.999268 L 140.907473 221.999268 L 134.953262 206.435941 L 107.486726 206.435941 L 101.834918 221.999268 L 87.048454 221.999268 L 113.837189 153.259935 L 128.508949 153.259935 Z M 111.725582 194.835135 L 130.521493 194.835135 L 121.032295 169.287295 Z M 179.985241 197.32214 L 181.789231 203.177287 C 182.18027 204.585026 182.467031 205.544373 182.65473 206.060544 L 182.842428 206.060544 C 183.812203 202.483846 184.708985 199.673584 185.537986 197.624543 L 195.053253 172.2644 L 208.577967 172.2644 L 188.796639 221.999268 L 176.914286 221.999268 L 156.825341 172.2644 L 170.657672 172.2644 Z M 236.034075 171.117354 C 242.37411 171.117354 247.076999 171.935928 250.14274 173.578289 C 253.218908 175.205009 255.158458 177.342685 255.956177 180.001746 C 256.748681 182.655594 257.118864 186.164511 257.056298 190.523286 L 256.962449 205.007347 C 256.899883 209.55382 257.056298 212.84897 257.431695 214.898011 C 257.822733 216.947052 258.625665 219.314138 259.845705 221.999268 L 246.884086 221.999268 C 246.571256 221.295399 245.992519 219.475767 245.147876 216.540372 C 242.791218 218.834464 240.345925 220.513322 237.811996 221.576947 C 235.283281 222.624929 232.577296 223.146314 229.704467 223.146314 C 224.782597 223.146314 220.79922 221.790714 217.74912 219.069087 C 214.704235 216.352674 213.181792 212.812473 213.181792 208.453699 C 213.181792 204.814435 214.094215 201.920751 215.924275 199.783074 C 217.74912 197.640184 219.975432 196.091672 222.60321 195.142752 C 225.225774 194.172977 228.328012 193.333548 231.90471 192.634893 C 237.405316 191.602552 241.466901 190.580638 244.094679 189.563938 L 244.094679 187.431476 C 244.094679 185.257302 243.453376 183.677507 242.17077 182.697304 C 240.90902 181.696246 238.573217 181.195717 235.163363 181.195717 C 232.55644 181.195717 230.611676 181.727529 229.32907 182.791153 C 228.046464 183.833922 227.087117 185.382434 226.445814 187.431476 L 214.537392 185.226019 C 215.819998 180.366716 218.124517 176.805659 221.456164 174.537637 C 224.782597 172.259187 229.641901 171.117354 236.034075 171.117354 Z M 235.846376 200.205396 L 233.64092 200.695497 C 228.781617 201.712197 226.351965 203.81859 226.351965 207.025105 C 226.351965 208.9438 227.040192 210.560092 228.416647 211.873981 C 229.787889 213.18787 231.529313 213.844814 233.64092 213.844814 C 235.361489 213.844814 237.087272 213.396424 238.818268 212.51007 C 240.554479 211.602861 241.899651 210.414104 242.853784 208.9438 C 243.677572 207.603842 244.094679 205.299322 244.094679 202.030242 L 244.094679 198.093789 C 241.607675 198.860224 238.859979 199.564093 235.846376 200.205396 Z M 283.172448 165.444691 L 270.023131 165.444691 L 270.023131 153.259935 L 283.172448 153.259935 Z M 283.172448 221.999268 L 270.023131 221.999268 L 270.023131 172.2644 L 283.172448 172.2644 Z M 309.86212 221.999268 L 296.712803 221.999268 L 296.712803 153.259935 L 309.86212 153.259935 Z M 342.782338 171.117354 C 349.127587 171.117354 353.830475 171.935928 356.891002 173.578289 C 359.972385 175.205009 361.906721 177.342685 362.70444 180.001746 C 363.502158 182.655594 363.867127 186.164511 363.804561 190.523286 L 363.715925 205.007347 C 363.653359 209.55382 363.804561 212.84897 364.179958 214.898011 C 364.570996 216.947052 365.379142 219.314138 366.593968 221.999268 L 353.637563 221.999268 C 353.324732 221.295399 352.745996 219.475767 351.901353 216.540372 C 349.539481 218.834464 347.094188 220.513322 344.565473 221.576947 C 342.031544 222.624929 339.330772 223.146314 336.457944 223.146314 C 331.536074 223.146314 327.547483 221.790714 324.502597 219.069087 C 321.457712 216.352674 319.930055 212.812473 319.930055 208.453699 C 319.930055 204.814435 320.847692 201.920751 322.672538 199.783074 C 324.502597 197.640184 326.728909 196.091672 329.351473 195.142752 C 331.979251 194.172977 335.081489 193.333548 338.658186 192.634893 C 344.158793 191.602552 348.220378 190.580638 350.848156 189.563938 L 350.848156 187.431476 C 350.848156 185.257302 350.206853 183.677507 348.924247 182.697304 C 347.657283 181.696246 345.32148 181.195717 341.916839 181.195717 C 339.304703 181.195717 337.359939 181.727529 336.082547 182.791153 C 334.799941 183.833922 333.840594 185.382434 333.199291 187.431476 L 321.290869 185.226019 C 322.573474 180.366716 324.877994 176.805659 328.204427 174.537637 C 331.536074 172.259187 336.395378 171.117354 342.782338 171.117354 Z M 342.594639 200.205396 L 340.394397 200.695497 C 335.535093 201.712197 333.105441 203.81859 333.105441 207.025105 C 333.105441 208.9438 333.793669 210.560092 335.16491 211.873981 C 336.541365 213.18787 338.282789 213.844814 340.394397 213.844814 C 342.109752 213.844814 343.840748 213.396424 345.571745 212.51007 C 347.307955 211.602861 348.653127 210.414104 349.602047 208.9438 C 350.431048 207.603842 350.848156 205.299322 350.848156 202.030242 L 350.848156 198.093789 C 348.361152 198.860224 345.613456 199.564093 342.594639 200.205396 Z M 389.33676 178.030913 C 393.387917 173.421874 398.221152 171.117354 403.846891 171.117354 C 407.689494 171.117354 411.193198 172.06106 414.347574 173.953686 C 417.517592 175.846312 420.051521 178.708713 421.938933 182.55653 C 423.831558 186.383493 424.775264 191.086381 424.775264 196.665195 C 424.775264 202.416066 423.800275 207.27537 421.845084 211.243106 C 419.895106 215.210842 417.329894 218.187947 414.159876 220.174422 C 411.0055 222.155683 407.595645 223.146314 403.94074 223.146314 C 401.443308 223.146314 398.768606 222.478942 395.92706 221.13377 C 393.080301 219.788598 390.603724 217.650921 388.497331 214.710313 L 388.497331 221.999268 L 376.192657 221.999268 L 376.192657 153.259935 L 389.33676 153.259935 Z M 389.248125 196.076031 C 389.248125 198.954073 389.456678 201.305517 389.879 203.130363 C 390.301321 204.960422 390.989549 206.545431 391.938469 207.890603 C 394.253416 211.091904 397.199238 212.697768 400.775936 212.697768 C 403.591412 212.697768 406.036705 211.477729 408.111816 209.037649 C 410.19214 206.602784 411.229695 202.666331 411.229695 197.22829 C 411.229695 192.368987 410.348555 188.484672 408.581062 185.580561 C 406.82921 182.655594 404.034589 181.195717 400.191985 181.195717 C 397.001112 181.195717 394.378548 182.462681 392.313865 184.991396 C 390.270038 187.525325 389.248125 191.216727 389.248125 196.076031 Z M 454.442043 171.117354 C 462.377515 171.117354 468.300443 173.692994 472.205613 178.849487 C 476.110782 184.005979 478.065974 191.352287 478.065974 200.883196 L 445.04148 200.883196 C 445.166612 204.209629 446.136387 207.077244 447.950806 209.48604 C 449.775651 211.873981 452.419071 213.067951 455.870636 213.067951 C 458.055237 213.067951 459.838372 212.515284 461.214827 211.404735 C 462.591282 210.283758 463.597554 208.531906 464.238857 206.154393 L 477.388174 208.359849 C 475.71453 213.234795 473.018972 216.920983 469.301501 219.423629 C 465.594457 221.905419 461.058412 223.146314 455.682938 223.146314 C 447.684899 223.146314 441.636839 220.747945 437.543971 215.951208 C 435.620062 213.719682 434.144544 210.904206 433.112203 207.515207 C 432.095503 204.110566 431.58976 200.742422 431.58976 197.415989 C 431.58976 192.885157 432.40312 188.615018 434.024625 184.615999 C 435.666987 180.61698 438.200915 177.368755 441.621198 174.866109 C 445.04148 172.368677 449.316833 171.117354 454.442043 171.117354 Z M 445.323028 192.822591 L 464.989651 192.822591 C 464.927085 188.787075 463.915599 185.841253 461.965621 183.985124 C 460.026071 182.123781 457.74762 181.195717 455.119842 181.195717 C 452.043674 181.195717 449.634877 182.306266 447.903881 184.52215 C 446.183312 186.727606 445.323028 189.490944 445.323028 192.822591 Z M 445.323028 192.822591 " stroke="#ffffff" stroke-width="7.2" stroke-opacity="1" stroke-miterlimit="4"/><g fill="#ee0000" fill-opacity="1"><g transform="translate(74.126865, 280.536477)"><g><path d="M 36.46875 -17.125 L 36.46875 -51.5 L 46.109375 -51.5 L 46.109375 0 L 35.671875 0 L 14.953125 -33.59375 L 14.953125 0 L 5.328125 0 L 5.328125 -51.5 L 15.390625 -51.5 Z M 36.46875 -17.125 "/></g></g></g><g fill="#ee0000" fill-opacity="1"><g transform="translate(126.055886, 280.536477)"><g><path d="M 22.078125 -38.125 C 26.109375 -38.125 29.582031 -37.210938 32.5 -35.390625 C 35.425781 -33.566406 37.632812 -31.164062 39.125 -28.1875 C 40.613281 -25.21875 41.359375 -22.078125 41.359375 -18.765625 C 41.359375 -15.316406 40.578125 -12.09375 39.015625 -9.09375 C 37.460938 -6.101562 35.234375 -3.695312 32.328125 -1.875 C 29.429688 -0.0507812 26.039062 0.859375 22.15625 0.859375 C 18.84375 0.859375 15.722656 0.175781 12.796875 -1.1875 C 9.878906 -2.550781 7.492188 -4.734375 5.640625 -7.734375 C 3.796875 -10.734375 2.875 -14.53125 2.875 -19.125 C 2.875 -22.34375 3.601562 -25.398438 5.0625 -28.296875 C 6.53125 -31.203125 8.710938 -33.566406 11.609375 -35.390625 C 14.515625 -37.210938 18.003906 -38.125 22.078125 -38.125 Z M 13.015625 -18.625 C 13.015625 -14.882812 13.890625 -12.039062 15.640625 -10.09375 C 17.390625 -8.15625 19.535156 -7.1875 22.078125 -7.1875 C 24.617188 -7.1875 26.773438 -8.144531 28.546875 -10.0625 C 30.328125 -11.988281 31.21875 -14.867188 31.21875 -18.703125 C 31.21875 -22.242188 30.363281 -25.019531 28.65625 -27.03125 C 26.957031 -29.050781 24.742188 -30.0625 22.015625 -30.0625 C 19.515625 -30.0625 17.390625 -29.078125 15.640625 -27.109375 C 13.890625 -25.148438 13.015625 -22.320312 13.015625 -18.625 Z M 13.015625 -18.625 "/></g></g></g><g fill="#ee0000" fill-opacity="1"><g transform="translate(189.996194, 280.536477)"><g><path d="M 15.25 0 L 4.890625 0 L 4.890625 -51.5 L 15.25 -51.5 Z M 15.25 0 "/></g></g></g><g fill="#ee0000" fill-opacity="1"><g transform="translate(209.991026, 280.536477)"><g><path d="M 25.171875 -38.125 C 30.015625 -38.125 33.539062 -36.15625 35.75 -32.21875 C 38.957031 -36.15625 42.742188 -38.125 47.109375 -38.125 C 51.234375 -38.125 54.300781 -36.992188 56.3125 -34.734375 C 58.320312 -32.484375 59.328125 -29.101562 59.328125 -24.59375 L 59.328125 0 L 49.484375 0 L 49.484375 -22.296875 C 49.484375 -24.984375 49.132812 -27.03125 48.4375 -28.4375 C 47.738281 -29.851562 46.335938 -30.5625 44.234375 -30.5625 C 42.222656 -30.5625 40.601562 -29.863281 39.375 -28.46875 C 38.15625 -27.082031 37.398438 -25.289062 37.109375 -23.09375 C 36.921875 -21.363281 36.828125 -19.828125 36.828125 -18.484375 L 36.828125 0 L 26.96875 0 L 26.96875 -21.9375 C 26.96875 -24.957031 26.644531 -27.148438 26 -28.515625 C 25.351562 -29.878906 23.972656 -30.5625 21.859375 -30.5625 C 20.328125 -30.5625 18.945312 -30.15625 17.71875 -29.34375 C 16.5 -28.53125 15.648438 -27.40625 15.171875 -25.96875 C 14.597656 -24.238281 14.3125 -21.816406 14.3125 -18.703125 L 14.3125 0 L 4.453125 0 L 4.453125 -37.25 L 13.59375 -37.25 L 13.734375 -32.21875 C 15.265625 -34.09375 16.878906 -35.546875 18.578125 -36.578125 C 20.285156 -37.609375 22.484375 -38.125 25.171875 -38.125 Z M 25.171875 -38.125 "/></g></g></g><g fill="#ee0000" fill-opacity="1"><g transform="translate(273.931322, 280.536477)"><g><path d="M 19.703125 -38.125 C 24.453125 -38.125 27.976562 -37.507812 30.28125 -36.28125 C 32.582031 -35.0625 34.03125 -33.457031 34.625 -31.46875 C 35.226562 -29.476562 35.503906 -26.851562 35.453125 -23.59375 L 35.390625 -12.734375 C 35.335938 -9.328125 35.453125 -6.851562 35.734375 -5.3125 C 36.023438 -3.78125 36.628906 -2.007812 37.546875 0 L 27.828125 0 C 27.585938 -0.53125 27.160156 -1.894531 26.546875 -4.09375 C 24.765625 -2.375 22.925781 -1.117188 21.03125 -0.328125 C 19.144531 0.460938 17.117188 0.859375 14.953125 0.859375 C 11.265625 0.859375 8.28125 -0.15625 6 -2.1875 C 3.726562 -4.226562 2.59375 -6.878906 2.59375 -10.140625 C 2.59375 -12.867188 3.273438 -15.035156 4.640625 -16.640625 C 6.003906 -18.253906 7.671875 -19.421875 9.640625 -20.140625 C 11.609375 -20.859375 13.929688 -21.484375 16.609375 -22.015625 C 20.734375 -22.773438 23.78125 -23.539062 25.75 -24.3125 L 25.75 -25.890625 C 25.75 -27.523438 25.269531 -28.710938 24.3125 -29.453125 C 23.351562 -30.191406 21.601562 -30.5625 19.0625 -30.5625 C 17.09375 -30.5625 15.628906 -30.164062 14.671875 -29.375 C 13.710938 -28.582031 12.992188 -27.421875 12.515625 -25.890625 L 3.59375 -27.546875 C 4.550781 -31.191406 6.273438 -33.863281 8.765625 -35.5625 C 11.265625 -37.269531 14.910156 -38.125 19.703125 -38.125 Z M 19.5625 -16.328125 L 17.90625 -15.96875 C 14.257812 -15.195312 12.4375 -13.613281 12.4375 -11.21875 C 12.4375 -9.78125 12.953125 -8.566406 13.984375 -7.578125 C 15.015625 -6.597656 16.320312 -6.109375 17.90625 -6.109375 C 19.195312 -6.109375 20.488281 -6.441406 21.78125 -7.109375 C 23.082031 -7.785156 24.09375 -8.675781 24.8125 -9.78125 C 25.4375 -10.789062 25.75 -12.515625 25.75 -14.953125 L 25.75 -17.90625 C 23.875 -17.332031 21.8125 -16.804688 19.5625 -16.328125 Z M 19.5625 -16.328125 "/></g></g></g><g fill="#ee0000" fill-opacity="1"><g transform="translate(313.920986, 280.536477)"><g><path d="M 18.703125 -38.125 C 21.242188 -38.125 23.457031 -37.570312 25.34375 -36.46875 C 27.238281 -35.363281 28.785156 -33.898438 29.984375 -32.078125 L 30.140625 -32.078125 L 30.140625 -37.25 L 39.34375 -37.25 L 39.34375 -3.171875 C 39.34375 1.003906 38.863281 4.398438 37.90625 7.015625 C 36.945312 9.628906 35.179688 11.628906 32.609375 13.015625 C 30.046875 14.410156 26.394531 15.109375 21.65625 15.109375 C 15.613281 15.109375 11.210938 14.039062 8.453125 11.90625 C 5.691406 9.769531 4.289062 6.617188 4.25 2.453125 L 15.53125 3.8125 C 15.726562 5.300781 16.289062 6.296875 17.21875 6.796875 C 18.15625 7.296875 19.507812 7.546875 21.28125 7.546875 C 24.351562 7.546875 26.488281 7.003906 27.6875 5.921875 C 28.882812 4.847656 29.484375 2.96875 29.484375 0.28125 L 29.484375 -6.046875 L 29.34375 -6.046875 C 28.09375 -4.222656 26.5 -2.757812 24.5625 -1.65625 C 22.625 -0.550781 20.550781 0 18.34375 0 C 15.269531 0 12.570312 -0.8125 10.25 -2.4375 C 7.925781 -4.070312 6.128906 -6.328125 4.859375 -9.203125 C 3.585938 -12.078125 2.953125 -15.289062 2.953125 -18.84375 C 2.953125 -23.488281 3.753906 -27.25 5.359375 -30.125 C 6.960938 -33.007812 8.960938 -35.0625 11.359375 -36.28125 C 13.753906 -37.507812 16.203125 -38.125 18.703125 -38.125 Z M 13.09375 -19.421875 C 13.09375 -16.304688 13.710938 -13.632812 14.953125 -11.40625 C 16.203125 -9.175781 18.242188 -8.0625 21.078125 -8.0625 C 23.234375 -8.0625 25.207031 -8.898438 27 -10.578125 C 28.800781 -12.253906 29.703125 -15.128906 29.703125 -19.203125 C 29.703125 -22.222656 29.039062 -24.867188 27.71875 -27.140625 C 26.40625 -29.421875 24.210938 -30.5625 21.140625 -30.5625 C 18.171875 -30.5625 16.085938 -29.410156 14.890625 -27.109375 C 13.691406 -24.804688 13.09375 -22.242188 13.09375 -19.421875 Z M 13.09375 -19.421875 "/></g></g></g><g fill="#ee0000" fill-opacity="1"><g transform="translate(357.866463, 280.536477)"><g><path d="M 19.421875 -38.125 C 25.367188 -38.125 29.800781 -36.191406 32.71875 -32.328125 C 35.644531 -28.472656 37.109375 -22.972656 37.109375 -15.828125 L 12.375 -15.828125 C 12.46875 -13.328125 13.195312 -11.175781 14.5625 -9.375 C 15.925781 -7.582031 17.90625 -6.6875 20.5 -6.6875 C 22.125 -6.6875 23.453125 -7.101562 24.484375 -7.9375 C 25.515625 -8.78125 26.269531 -10.085938 26.75 -11.859375 L 36.609375 -10.21875 C 35.359375 -6.570312 33.34375 -3.8125 30.5625 -1.9375 C 27.78125 -0.0703125 24.378906 0.859375 20.359375 0.859375 C 14.359375 0.859375 9.828125 -0.9375 6.765625 -4.53125 C 5.328125 -6.207031 4.222656 -8.316406 3.453125 -10.859375 C 2.679688 -13.398438 2.296875 -15.914062 2.296875 -18.40625 C 2.296875 -21.8125 2.90625 -25.015625 4.125 -28.015625 C 5.351562 -31.015625 7.25 -33.445312 9.8125 -35.3125 C 12.382812 -37.1875 15.585938 -38.125 19.421875 -38.125 Z M 12.59375 -21.859375 L 27.328125 -21.859375 C 27.285156 -24.878906 26.53125 -27.082031 25.0625 -28.46875 C 23.601562 -29.863281 21.890625 -30.5625 19.921875 -30.5625 C 17.617188 -30.5625 15.820312 -29.734375 14.53125 -28.078125 C 13.238281 -26.429688 12.59375 -24.359375 12.59375 -21.859375 Z M 12.59375 -21.859375 "/></g></g></g><g fill="#ee0000" fill-opacity="1"><g transform="translate(88.080849, 380.930236)"><g><path d="M 51.71875 0 L 40.34375 0 L 35.890625 -11.65625 L 15.3125 -11.65625 L 11.078125 0 L 0 0 L 20.0625 -51.5 L 31.0625 -51.5 Z M 18.484375 -20.359375 L 32.578125 -20.359375 L 25.453125 -39.484375 Z M 18.484375 -20.359375 "/></g></g></g><g fill="#ee0000" fill-opacity="1"><g transform="translate(140.00987, 380.930236)"><g><path d="M 17.6875 -18.484375 L 19.0625 -14.09375 C 19.34375 -13.039062 19.554688 -12.320312 19.703125 -11.9375 L 19.84375 -11.9375 C 20.5625 -14.625 21.234375 -16.734375 21.859375 -18.265625 L 28.984375 -37.25 L 39.125 -37.25 L 24.3125 0 L 15.390625 0 L 0.359375 -37.25 L 10.71875 -37.25 Z M 17.6875 -18.484375 "/></g></g></g><g fill="#ee0000" fill-opacity="1"><g transform="translate(179.999533, 380.930236)"><g><path d="M 19.703125 -38.125 C 24.453125 -38.125 27.976562 -37.507812 30.28125 -36.28125 C 32.582031 -35.0625 34.03125 -33.457031 34.625 -31.46875 C 35.226562 -29.476562 35.503906 -26.851562 35.453125 -23.59375 L 35.390625 -12.734375 C 35.335938 -9.328125 35.453125 -6.851562 35.734375 -5.3125 C 36.023438 -3.78125 36.628906 -2.007812 37.546875 0 L 27.828125 0 C 27.585938 -0.53125 27.160156 -1.894531 26.546875 -4.09375 C 24.765625 -2.375 22.925781 -1.117188 21.03125 -0.328125 C 19.144531 0.460938 17.117188 0.859375 14.953125 0.859375 C 11.265625 0.859375 8.28125 -0.15625 6 -2.1875 C 3.726562 -4.226562 2.59375 -6.878906 2.59375 -10.140625 C 2.59375 -12.867188 3.273438 -15.035156 4.640625 -16.640625 C 6.003906 -18.253906 7.671875 -19.421875 9.640625 -20.140625 C 11.609375 -20.859375 13.929688 -21.484375 16.609375 -22.015625 C 20.734375 -22.773438 23.78125 -23.539062 25.75 -24.3125 L 25.75 -25.890625 C 25.75 -27.523438 25.269531 -28.710938 24.3125 -29.453125 C 23.351562 -30.191406 21.601562 -30.5625 19.0625 -30.5625 C 17.09375 -30.5625 15.628906 -30.164062 14.671875 -29.375 C 13.710938 -28.582031 12.992188 -27.421875 12.515625 -25.890625 L 3.59375 -27.546875 C 4.550781 -31.191406 6.273438 -33.863281 8.765625 -35.5625 C 11.265625 -37.269531 14.910156 -38.125 19.703125 -38.125 Z M 19.5625 -16.328125 L 17.90625 -15.96875 C 14.257812 -15.195312 12.4375 -13.613281 12.4375 -11.21875 C 12.4375 -9.78125 12.953125 -8.566406 13.984375 -7.578125 C 15.015625 -6.597656 16.320312 -6.109375 17.90625 -6.109375 C 19.195312 -6.109375 20.488281 -6.441406 21.78125 -7.109375 C 23.082031 -7.785156 24.09375 -8.675781 24.8125 -9.78125 C 25.4375 -10.789062 25.75 -12.515625 25.75 -14.953125 L 25.75 -17.90625 C 23.875 -17.332031 21.8125 -16.804688 19.5625 -16.328125 Z M 19.5625 -16.328125 "/></g></g></g><g fill="#ee0000" fill-opacity="1"><g transform="translate(219.989197, 380.930236)"><g><path d="M 15.03125 -42.359375 L 5.171875 -42.359375 L 5.171875 -51.5 L 15.03125 -51.5 Z M 15.03125 0 L 5.171875 0 L 5.171875 -37.25 L 15.03125 -37.25 Z M 15.03125 0 "/></g></g></g><g fill="#ee0000" fill-opacity="1"><g transform="translate(239.984029, 380.930236)"><g><path d="M 15.03125 0 L 5.171875 0 L 5.171875 -51.5 L 15.03125 -51.5 Z M 15.03125 0 "/></g></g></g><g fill="#ee0000" fill-opacity="1"><g transform="translate(259.978861, 380.930236)"><g><path d="M 19.703125 -38.125 C 24.453125 -38.125 27.976562 -37.507812 30.28125 -36.28125 C 32.582031 -35.0625 34.03125 -33.457031 34.625 -31.46875 C 35.226562 -29.476562 35.503906 -26.851562 35.453125 -23.59375 L 35.390625 -12.734375 C 35.335938 -9.328125 35.453125 -6.851562 35.734375 -5.3125 C 36.023438 -3.78125 36.628906 -2.007812 37.546875 0 L 27.828125 0 C 27.585938 -0.53125 27.160156 -1.894531 26.546875 -4.09375 C 24.765625 -2.375 22.925781 -1.117188 21.03125 -0.328125 C 19.144531 0.460938 17.117188 0.859375 14.953125 0.859375 C 11.265625 0.859375 8.28125 -0.15625 6 -2.1875 C 3.726562 -4.226562 2.59375 -6.878906 2.59375 -10.140625 C 2.59375 -12.867188 3.273438 -15.035156 4.640625 -16.640625 C 6.003906 -18.253906 7.671875 -19.421875 9.640625 -20.140625 C 11.609375 -20.859375 13.929688 -21.484375 16.609375 -22.015625 C 20.734375 -22.773438 23.78125 -23.539062 25.75 -24.3125 L 25.75 -25.890625 C 25.75 -27.523438 25.269531 -28.710938 24.3125 -29.453125 C 23.351562 -30.191406 21.601562 -30.5625 19.0625 -30.5625 C 17.09375 -30.5625 15.628906 -30.164062 14.671875 -29.375 C 13.710938 -28.582031 12.992188 -27.421875 12.515625 -25.890625 L 3.59375 -27.546875 C 4.550781 -31.191406 6.273438 -33.863281 8.765625 -35.5625 C 11.265625 -37.269531 14.910156 -38.125 19.703125 -38.125 Z M 19.5625 -16.328125 L 17.90625 -15.96875 C 14.257812 -15.195312 12.4375 -13.613281 12.4375 -11.21875 C 12.4375 -9.78125 12.953125 -8.566406 13.984375 -7.578125 C 15.015625 -6.597656 16.320312 -6.109375 17.90625 -6.109375 C 19.195312 -6.109375 20.488281 -6.441406 21.78125 -7.109375 C 23.082031 -7.785156 24.09375 -8.675781 24.8125 -9.78125 C 25.4375 -10.789062 25.75 -12.515625 25.75 -14.953125 L 25.75 -17.90625 C 23.875 -17.332031 21.8125 -16.804688 19.5625 -16.328125 Z M 19.5625 -16.328125 "/></g></g></g><g fill="#ee0000" fill-opacity="1"><g transform="translate(299.968513, 380.930236)"><g><path d="M 14.59375 -32.9375 C 17.613281 -36.394531 21.234375 -38.125 25.453125 -38.125 C 28.335938 -38.125 30.960938 -37.414062 33.328125 -36 C 35.703125 -34.582031 37.597656 -32.4375 39.015625 -29.5625 C 40.429688 -26.6875 41.140625 -23.160156 41.140625 -18.984375 C 41.140625 -14.671875 40.40625 -11.023438 38.9375 -8.046875 C 37.476562 -5.078125 35.5625 -2.847656 33.1875 -1.359375 C 30.8125 0.117188 28.257812 0.859375 25.53125 0.859375 C 23.664062 0.859375 21.664062 0.359375 19.53125 -0.640625 C 17.394531 -1.648438 15.535156 -3.257812 13.953125 -5.46875 L 13.953125 0 L 4.75 0 L 4.75 -51.5 L 14.59375 -51.5 Z M 14.53125 -19.421875 C 14.53125 -17.265625 14.6875 -15.5 15 -14.125 C 15.3125 -12.757812 15.828125 -11.578125 16.546875 -10.578125 C 18.265625 -8.171875 20.46875 -6.96875 23.15625 -6.96875 C 25.269531 -6.96875 27.101562 -7.878906 28.65625 -9.703125 C 30.21875 -11.523438 31 -14.476562 31 -18.5625 C 31 -22.195312 30.335938 -25.101562 29.015625 -27.28125 C 27.703125 -29.46875 25.609375 -30.5625 22.734375 -30.5625 C 20.328125 -30.5625 18.359375 -29.613281 16.828125 -27.71875 C 15.296875 -25.832031 14.53125 -23.066406 14.53125 -19.421875 Z M 14.53125 -19.421875 "/></g></g></g><g fill="#ee0000" fill-opacity="1"><g transform="translate(343.913989, 380.930236)"><g><path d="M 19.421875 -38.125 C 25.367188 -38.125 29.800781 -36.191406 32.71875 -32.328125 C 35.644531 -28.472656 37.109375 -22.972656 37.109375 -15.828125 L 12.375 -15.828125 C 12.46875 -13.328125 13.195312 -11.175781 14.5625 -9.375 C 15.925781 -7.582031 17.90625 -6.6875 20.5 -6.6875 C 22.125 -6.6875 23.453125 -7.101562 24.484375 -7.9375 C 25.515625 -8.78125 26.269531 -10.085938 26.75 -11.859375 L 36.609375 -10.21875 C 35.359375 -6.570312 33.34375 -3.8125 30.5625 -1.9375 C 27.78125 -0.0703125 24.378906 0.859375 20.359375 0.859375 C 14.359375 0.859375 9.828125 -0.9375 6.765625 -4.53125 C 5.328125 -6.207031 4.222656 -8.316406 3.453125 -10.859375 C 2.679688 -13.398438 2.296875 -15.914062 2.296875 -18.40625 C 2.296875 -21.8125 2.90625 -25.015625 4.125 -28.015625 C 5.351562 -31.015625 7.25 -33.445312 9.8125 -35.3125 C 12.382812 -37.1875 15.585938 -38.125 19.421875 -38.125 Z M 12.59375 -21.859375 L 27.328125 -21.859375 C 27.285156 -24.878906 26.53125 -27.082031 25.0625 -28.46875 C 23.601562 -29.863281 21.890625 -30.5625 19.921875 -30.5625 C 17.617188 -30.5625 15.820312 -29.734375 14.53125 -28.078125 C 13.238281 -26.429688 12.59375 -24.359375 12.59375 -21.859375 Z M 12.59375 -21.859375 "/></g></g></g><g clip-path="url(#ed30a04c46)"><path fill="#ee0000" d="M 457.898438 200.917969 L 472 200.917969 L 472 586.414062 L 457.898438 586.414062 Z M 457.898438 200.917969 " fill-opacity="1" fill-rule="nonzero"/></g><g clip-path="url(#8ba5371c79)"><path fill="#ee0000" d="M 0 200.917969 L 14.105469 200.917969 L 14.105469 586.414062 L 0 586.414062 Z M 0 200.917969 " fill-opacity="1" fill-rule="nonzero"/></g><g clip-path="url(#9b6c211231)"><path fill="#ee0000" d="M 43.25 615.5625 L 428.75 615.5625 L 428.75 629.667969 L 43.25 629.667969 Z M 43.25 615.5625 " fill-opacity="1" fill-rule="nonzero"/></g><g clip-path="url(#39c8c6653e)"><path fill="#ee0000" d="M 457.898438 615.5625 L 428.75 615.5625 L 428.75 629.667969 L 472 629.667969 L 472 586.414062 L 457.898438 586.414062 Z M 457.898438 615.5625 " fill-opacity="1" fill-rule="nonzero"/></g><g clip-path="url(#ef7c3acd99)"><path fill="#ee0000" d="M 14.105469 615.5625 L 14.105469 586.414062 L 0 586.414062 L 0 629.667969 L 43.25 629.667969 L 43.25 615.5625 Z M 14.105469 615.5625 " fill-opacity="1" fill-rule="nonzero"/></g></svg>